<?xml version="1.0" standalone="no"?>
<!DOCTYPE svg PUBLIC "-//W3C//DTD SVG 20010904//EN"
 "http://www.w3.org/TR/2001/REC-SVG-20010904/DTD/svg10.dtd">
<svg version="1.0" xmlns="http://www.w3.org/2000/svg"
 width="524.000000pt" height="190.000000pt" viewBox="0 0 524.000000 129.000000"
 preserveAspectRatio="xMidYMid meet">

<g transform="translate(0.000000,129.000000) scale(0.100000,-0.100000)"
fill="#000000" stroke="none">
<path d="M1483 889 c-37 -11 -43 -24 -13 -32 17 -4 20 -14 20 -56 l0 -51 -43
6 c-109 15 -184 -100 -127 -194 11 -18 35 -39 53 -47 32 -13 83 -10 93 6 8 13
24 11 24 -4 0 -8 14 -11 45 -9 47 4 59 16 25 25 -18 5 -20 15 -22 183 -2 108
-7 178 -13 180 -5 1 -25 -2 -42 -7z m-13 -169 c16 -16 20 -33 20 -87 0 -75
-16 -103 -60 -103 -50 0 -82 62 -69 133 13 71 67 99 109 57z"/>
<path d="M2133 889 c-33 -10 -45 -29 -19 -29 21 0 26 -33 26 -165 0 -132 -5
-165 -26 -165 -8 0 -14 -4 -14 -10 0 -6 27 -10 60 -10 58 0 80 12 40 23 -16 4
-20 14 -20 51 0 25 4 46 10 46 9 0 58 -49 97 -98 15 -19 26 -23 63 -20 43 3
44 4 20 15 -27 11 -120 114 -120 131 0 14 68 72 85 72 7 0 17 5 20 10 4 6 -15
10 -49 10 -31 0 -56 -4 -56 -10 0 -5 8 -10 17 -10 12 0 6 -11 -22 -40 -61 -63
-65 -58 -65 85 0 69 -3 125 -7 124 -5 0 -23 -5 -40 -10z"/>
<path d="M2673 889 c-37 -11 -43 -24 -13 -32 19 -5 20 -14 20 -162 0 -148 -1
-157 -20 -162 -40 -11 -18 -23 40 -23 33 0 60 4 60 10 0 6 -7 10 -15 10 -13 0
-15 14 -13 87 3 83 4 88 30 102 21 12 31 13 52 3 25 -11 26 -14 26 -102 0 -73
-3 -90 -15 -90 -8 0 -15 -4 -15 -10 0 -6 27 -10 60 -10 58 0 80 12 40 23 -18
5 -20 14 -20 95 0 86 -1 92 -26 111 -34 27 -74 27 -107 1 l-26 -21 -3 87 c-2
48 -7 88 -13 90 -5 1 -25 -2 -42 -7z"/>
<path d="M4056 891 c-31 -6 -48 -31 -22 -31 13 0 16 -11 16 -53 l0 -53 -56 0
c-52 1 -58 -2 -90 -36 -29 -32 -34 -45 -34 -88 0 -41 5 -55 30 -84 37 -42 69
-51 116 -31 44 18 44 18 44 2 0 -8 14 -11 45 -9 43 4 65 22 26 22 -10 0 -22 7
-25 16 -3 9 -6 92 -6 185 0 93 -3 168 -7 168 -5 -1 -21 -4 -37 -8z m-25 -161
c16 -9 19 -22 19 -96 0 -80 -1 -85 -24 -95 -62 -29 -115 32 -101 115 10 69 57
102 106 76z"/>
<path d="M4204 865 c-10 -25 22 -53 44 -39 9 6 17 20 17 30 0 25 -52 33 -61 9z"/>
<path d="M620 843 c0 -4 10 -13 23 -18 21 -10 22 -15 22 -145 0 -130 -1 -135
-22 -145 -40 -17 -25 -25 52 -25 77 0 92 8 53 25 -19 8 -23 19 -26 68 -3 52
-1 57 18 57 13 0 32 -17 53 -47 54 -80 81 -103 121 -103 42 0 56 15 21 24 -23
6 -105 107 -105 130 0 6 10 16 22 21 12 6 31 22 42 37 25 34 15 71 -27 102
-24 18 -46 22 -138 24 -60 2 -109 0 -109 -5z m213 -44 c41 -51 0 -119 -73
-119 l-40 0 0 63 c0 37 5 68 13 76 17 18 78 6 100 -20z"/>
<path d="M3350 842 c0 -4 10 -12 23 -17 21 -10 22 -15 22 -145 0 -130 -1 -135
-22 -145 -40 -17 -25 -25 52 -25 77 0 92 8 53 25 -22 10 -23 15 -23 145 0 130
1 135 23 145 39 17 24 25 -53 25 -41 0 -75 -3 -75 -8z"/>
<path d="M1008 746 c-42 -11 -48 -21 -18 -29 18 -5 20 -14 20 -84 0 -87 13
-117 56 -127 17 -5 40 0 64 12 35 17 39 17 43 3 3 -13 14 -16 50 -13 52 4 59
12 25 27 -22 9 -23 17 -26 117 l-3 106 -37 -10 c-52 -14 -59 -20 -33 -29 20
-8 22 -14 19 -86 -3 -72 -5 -78 -30 -92 -21 -12 -31 -13 -52 -3 -25 11 -26 14
-26 111 0 55 -3 101 -7 104 -5 2 -25 -1 -45 -7z"/>
<path d="M1641 751 c-27 -7 -41 -31 -18 -31 21 0 27 -22 27 -95 0 -72 -6 -95
-26 -95 -8 0 -14 -4 -14 -10 0 -6 27 -10 60 -10 33 0 60 4 60 10 0 6 -6 10
-14 10 -20 0 -26 23 -26 101 0 65 1 69 29 83 31 17 41 13 41 -16 0 -24 27 -23
40 1 25 47 -22 73 -75 42 -35 -20 -35 -20 -35 -1 0 21 -8 23 -49 11z"/>
<path d="M1883 748 c-43 -21 -40 -78 3 -78 22 0 23 2 14 21 -15 27 3 49 39 49
36 0 51 -17 51 -56 0 -31 -2 -33 -47 -40 -65 -9 -99 -28 -107 -60 -16 -61 49
-99 114 -67 36 18 37 18 63 0 16 -13 32 -17 44 -13 17 7 17 8 1 20 -14 11 -18
28 -18 87 0 41 -3 84 -6 97 -12 44 -97 66 -151 40z m107 -143 c0 -27 -40 -75
-62 -75 -45 1 -51 65 -8 87 43 22 70 17 70 -12z"/>
<path d="M2453 740 c-25 -15 -33 -27 -33 -48 0 -41 18 -58 83 -82 48 -18 57
-25 57 -46 0 -53 -104 -56 -106 -3 -2 39 -3 40 -24 29 -52 -28 -5 -84 70 -84
59 0 100 31 100 74 0 34 -22 54 -85 77 -41 15 -51 23 -53 45 -3 22 2 29 22 34
41 10 61 1 61 -28 1 -35 11 -44 30 -28 36 30 -1 80 -60 80 -16 0 -45 -9 -62
-20z"/>
<path d="M3010 748 c-33 -18 -36 -71 -3 -76 18 -3 21 1 20 30 -2 35 14 45 59
34 20 -5 24 -12 24 -45 0 -41 -13 -51 -71 -51 -70 0 -104 -79 -53 -119 33 -26
50 -26 97 -2 20 10 37 15 37 10 0 -14 47 -30 65 -22 14 5 13 8 -5 20 -18 12
-20 25 -20 102 0 75 -3 91 -20 106 -25 23 -98 30 -130 13z m100 -146 c0 -36
-18 -59 -51 -67 -55 -13 -66 64 -12 83 49 18 63 15 63 -16z"/>
<path d="M3580 753 c-37 -7 -49 -23 -22 -29 21 -6 22 -12 22 -96 0 -81 -2 -90
-20 -95 -41 -11 -18 -23 45 -23 63 0 86 12 45 23 -18 5 -20 14 -20 85 0 72 2
83 22 96 62 43 98 5 98 -102 0 -65 -2 -74 -20 -79 -40 -11 -18 -23 40 -23 33
0 60 4 60 10 0 6 -7 10 -15 10 -12 0 -15 15 -15 74 0 40 -5 87 -11 104 -18 53
-95 66 -141 25 -17 -15 -18 -14 -18 5 0 22 -4 23 -50 15z"/>
<path d="M4210 753 c-37 -7 -49 -23 -22 -29 21 -6 22 -11 22 -100 0 -75 -3
-94 -14 -94 -8 0 -18 -4 -21 -10 -4 -6 18 -10 59 -10 64 0 88 12 46 23 -18 5
-20 14 -20 116 0 83 -3 111 -12 110 -7 -1 -24 -4 -38 -6z"/>
<path d="M4380 747 c-18 -9 -25 -21 -25 -42 0 -25 4 -30 28 -33 26 -3 27 -2
16 16 -17 27 3 52 42 52 31 0 49 -23 49 -63 0 -23 -6 -26 -62 -36 -65 -11 -98
-35 -98 -71 0 -25 31 -58 60 -65 15 -3 39 2 60 13 34 17 36 17 61 -1 15 -10
32 -15 43 -11 16 6 16 8 -3 26 -18 16 -21 31 -21 101 0 45 -4 87 -8 94 -19 30
-99 42 -142 20z m110 -142 c0 -27 -40 -75 -62 -75 -45 1 -51 65 -8 87 43 22
70 17 70 -12z"/>
</g>
</svg>
